<svg width="29" height="29" viewBox="0 0 29 29" fill="none" xmlns="http://www.w3.org/2000/svg">
<path d="M7.82637 4.87019C9.48662 4.11619 11.8465 3.625 14.5 3.625C17.1535 3.625 19.5134 4.11438 21.1736 4.87019C22.9173 5.66406 23.5625 6.57394 23.5625 7.25C23.5625 7.92788 22.9173 8.83594 21.1736 9.62981C19.5134 10.3838 17.1535 10.875 14.5 10.875C11.8465 10.875 9.48662 10.3856 7.82637 9.62981C6.08275 8.83594 5.4375 7.92606 5.4375 7.25C5.4375 6.57212 6.08275 5.66406 7.82637 4.87019ZM23.5625 10.3276V12.6875C23.5625 13.3654 22.9173 14.2734 21.1736 15.0673C19.5134 15.8213 17.1535 16.3125 14.5 16.3125C11.8465 16.3125 9.48662 15.8231 7.82637 15.0673C6.08275 14.2734 5.4375 13.3636 5.4375 12.6875V10.3276C5.92869 10.6937 6.48875 11.0128 7.076 11.2792C9.02263 12.1637 11.6489 12.6875 14.5 12.6875C17.3511 12.6875 19.9774 12.1637 21.924 11.2792C22.5019 11.0201 23.0511 10.7012 23.5625 10.3276ZM25.375 7.25C25.375 5.42481 23.7891 4.06906 21.924 3.22081C19.9774 2.33631 17.3511 1.8125 14.5 1.8125C11.6489 1.8125 9.02263 2.33631 7.076 3.22081C5.21094 4.06906 3.625 5.42481 3.625 7.25V23.5625C3.625 25.3877 5.21094 26.7434 7.076 27.5917C9.02263 28.4744 11.6489 29 14.5 29C17.3511 29 19.9774 28.4762 21.924 27.5917C23.7891 26.7434 25.375 25.3877 25.375 23.5625V7.25ZM23.5625 15.7651V18.125C23.5625 18.8029 22.9173 19.7109 21.1736 20.5048C19.5134 21.2588 17.1535 21.75 14.5 21.75C11.8465 21.75 9.48662 21.2606 7.82637 20.5048C6.08275 19.7109 5.4375 18.8011 5.4375 18.125V15.7651C5.92869 16.1312 6.48875 16.4502 7.076 16.7167C9.02263 17.5994 11.6489 18.125 14.5 18.125C17.3511 18.125 19.9774 17.6012 21.924 16.7167C22.5019 16.4576 23.0511 16.1387 23.5625 15.7651ZM23.5625 21.2026V23.5625C23.5625 24.2404 22.9173 25.1484 21.1736 25.9423C19.5134 26.6963 17.1535 27.1875 14.5 27.1875C11.8465 27.1875 9.48662 26.6981 7.82637 25.9423C6.08275 25.1484 5.4375 24.2386 5.4375 23.5625V21.2026C5.92869 21.5687 6.48875 21.8877 7.076 22.1542C9.02263 23.0369 11.6489 23.5625 14.5 23.5625C17.3511 23.5625 19.9774 23.0387 21.924 22.1542C22.5112 21.8877 23.0713 21.5687 23.5625 21.2026Z" fill="white"/>
</svg>
